<?xml version="1.0" standalone="no"?>
<!DOCTYPE svg PUBLIC "-//W3C//DTD SVG 20010904//EN"
        "http://www.w3.org/TR/2001/REC-SVG-20010904/DTD/svg10.dtd">
<svg version="1.0" xmlns="http://www.w3.org/2000/svg"
     width="709.000000pt" height="148.000000pt" viewBox="0 0 709.000000 148.000000"
     preserveAspectRatio="xMidYMid meet">

    <g transform="translate(0.000000,148.000000) scale(0.100000,-0.100000)"
       fill="#ffffff" stroke="none">
        <path d="M896 1441 c-3 -4 -18 -11 -34 -14 -16 -3 -52 -24 -80 -46 -60 -48
-115 -150 -110 -204 3 -30 5 -32 36 -29 68 5 147 65 187 141 20 40 37 119 30
142 -7 20 -20 25 -29 10z"/>
        <path d="M403 1130 c-72 -20 -100 -36 -153 -91 -81 -84 -112 -208 -92 -369 18
-150 107 -333 209 -434 72 -72 127 -79 248 -32 52 20 146 20 193 1 122 -51
175 -41 261 50 60 64 150 206 151 236 0 8 -20 29 -45 47 -84 59 -131 161 -122
263 6 71 34 124 92 178 44 40 46 44 30 61 -32 35 -93 71 -151 89 -52 15 -68
16 -129 5 -38 -7 -90 -19 -114 -28 -54 -20 -82 -20 -146 0 -122 37 -167 42
-232 24z"/>
        <path d="M3550 715 l0 -396 68 3 67 3 0 63 c-1 34 -2 211 -3 392 l-2 330 -65
0 -65 0 0 -395z"/>
        <path d="M4748 1066 c-122 -33 -190 -160 -144 -269 19 -46 96 -111 164 -138
73 -29 128 -64 142 -88 19 -36 12 -79 -19 -113 -26 -29 -35 -33 -97 -36 -51
-2 -84 2 -126 17 -66 23 -70 20 -83 -51 -7 -35 -6 -36 42 -54 36 -14 74 -19
153 -19 98 0 109 2 159 30 92 51 137 149 111 244 -17 64 -75 115 -195 171
-104 48 -135 76 -135 118 0 66 54 97 154 89 39 -4 83 -9 98 -13 24 -6 28 -3
39 34 6 22 9 47 6 55 -13 33 -179 47 -269 23z"/>
        <path d="M1775 1060 c-5 -8 -94 -286 -231 -723 -5 -16 1 -18 62 -15 l68 3 31
100 31 100 124 0 123 0 32 -100 32 -100 67 -3 68 -3 -7 33 c-4 18 -32 110 -62
203 -60 186 -102 320 -137 435 l-23 75 -86 3 c-53 2 -88 -1 -92 -8z m100 -147
c3 -20 22 -86 41 -146 19 -61 32 -117 29 -125 -4 -11 -23 -13 -91 -9 -47 3
-87 6 -88 8 -2 2 14 60 35 129 20 69 40 137 43 153 9 38 23 34 31 -10z"/>
        <path d="M5228 998 c-32 -8 -38 -14 -38 -36 0 -15 -3 -44 -6 -64 -6 -35 -9
-38 -41 -38 l-34 0 3 -47 c3 -46 5 -48 34 -51 l31 -3 7 -167 c7 -187 17 -221
76 -260 29 -19 45 -22 105 -20 l70 3 3 53 3 52 -45 0 c-74 0 -79 19 -77 263
l1 77 65 0 65 0 0 50 0 49 -62 3 -63 3 -3 40 c-1 22 -5 55 -8 73 -5 35 -18 38
-86 20z"/>
        <path d="M3180 870 c-44 -8 -89 -31 -114 -59 -26 -29 -34 -26 -38 12 -3 32 -4
32 -60 35 l-58 3 0 -386 0 -385 70 0 70 0 0 142 c0 134 1 140 18 126 58 -51
162 -64 231 -28 55 27 116 101 132 157 16 60 16 166 -1 218 -38 116 -141 184
-250 165z m57 -120 c46 -28 73 -86 73 -160 0 -76 -18 -120 -62 -154 -60 -45
-149 -28 -184 36 -18 32 -18 180 0 223 28 67 111 93 173 55z"/>
        <path d="M6377 865 c-43 -15 -84 -49 -93 -77 -10 -33 -24 -19 -24 27 l0 45
-55 0 -55 0 0 -270 0 -270 64 0 64 0 4 173 c3 160 5 174 26 204 23 33 76 57
114 51 21 -3 23 1 26 56 2 41 -1 62 -10 67 -16 11 -15 11 -61 -6z"/>
        <path d="M6700 871 c-49 -10 -79 -27 -128 -74 -53 -52 -82 -125 -82 -211 0
-112 43 -193 127 -243 60 -35 189 -44 276 -19 l56 16 -6 38 c-7 49 -14 55 -47
42 -15 -5 -59 -10 -97 -10 -104 0 -171 41 -181 111 l-3 24 180 5 180 5 -2 72
c-2 85 -25 143 -73 190 -47 46 -129 68 -200 54z m116 -112 c26 -25 49 -82 40
-104 -8 -22 -234 -22 -242 0 -9 23 29 87 67 113 42 29 99 25 135 -9z"/>
        <path d="M2485 855 c-16 -9 -41 -27 -56 -41 -34 -32 -39 -30 -39 11 l0 36 -55
-3 -55 -3 -1 -380 -1 -380 66 -3 66 -3 0 142 c0 135 1 141 18 127 89 -79 249
-57 322 43 42 58 54 103 55 200 0 76 -3 92 -30 144 -44 86 -94 119 -188 123
-52 2 -80 -2 -102 -13z m125 -111 c46 -40 60 -74 60 -154 0 -80 -14 -114 -60
-154 -48 -40 -109 -37 -158 8 -37 34 -37 35 -40 123 -5 106 11 153 60 183 47
28 99 26 138 -6z"/>
        <path d="M3954 856 c-119 -53 -191 -219 -154 -351 36 -130 128 -195 275 -195
76 0 135 10 163 28 9 6 10 19 4 48 -7 31 -12 38 -28 36 -74 -12 -166 -13 -196
-3 -45 15 -86 58 -94 99 l-6 32 180 0 c143 0 181 3 185 14 10 26 -11 144 -35
192 -15 30 -41 61 -67 79 -37 26 -53 30 -119 33 -50 1 -88 -3 -108 -12z m178
-105 c21 -23 28 -42 28 -71 l0 -40 -119 0 c-74 0 -122 4 -126 11 -17 27 34
111 79 130 12 5 41 7 66 5 34 -3 51 -11 72 -35z"/>
        <path d="M5650 846 c-56 -29 -95 -68 -123 -121 -18 -33 -22 -57 -22 -135 0
-87 3 -100 30 -149 21 -38 46 -65 84 -90 49 -32 62 -36 132 -40 66 -3 86 1
131 21 99 46 147 120 156 239 9 127 -40 224 -139 275 -68 34 -184 34 -249 0z
m191 -93 c88 -74 93 -226 10 -313 -32 -34 -44 -40 -79 -40 -48 0 -91 31 -116
84 -19 39 -22 159 -5 203 33 87 126 120 190 66z"/>
    </g>
</svg>
